# xmcd
#
# Track frame offsets:
#	150
#	10581
#	21291
#	33347
#	45193
#	55538
#	66908
#	78271
#	88994
#	101575
#	114224
#	124920
#	137423
#	147050
#	158211
#	170211
#	181150
#	191736
#	202852
#	213902
#	225792
#	237223
#
# Disc length: 3336 seconds
#
# Revision: 1
# Processed by: cddbd v1.5.2PL0 Copyright (c) Steve Scherf et al.
# Submitted via: EasyCDDAExtractor 2010.6.0.0
#
DISCID=120d0616
DTITLE=Faron Young - The Best Of
DYEAR=1952
DGENRE=Country
TTITLE0=Live Fast, Love Hard, Die Young
TTITLE1=If You Ain't Lovin' (You Ain't Livin')
TTITLE2=Goin' Steady
TTITLE3=I Can't Wait (For The Sun To Go Down)
TTITLE4=Hello Walls
TTITLE5=A Place For Girls Like You
TTITLE6=Forgive Me Dear
TTITLE7=Foolish Heart
TTITLE8=In The Chapel In The Moonlight
TTITLE9=Have I Waited Too Long
TTITLE10=Baby My Heart
TTITLE11=Just Out Of Reach Of My Two Open Arms
TTITLE12=What Can I do With My Sorrow?
TTITLE13=That's What I'd Do For You
TTITLE14=I Knew You When
TTITLE15=Saving My Tears For Tomorrow
TTITLE16=I Hardly Knew It Was You
TTITLE17=They Made Me Fall In Love With You
TTITLE18=Just Married
TTITLE19=If That's The Fashion
TTITLE20=What's The Use Of Love To You?
TTITLE21=It's Four In The morning
EXTD=
EXTT0=
EXTT1=
EXTT2=
EXTT3=
EXTT4=
EXTT5=
EXTT6=
EXTT7=
EXTT8=
EXTT9=
EXTT10=
EXTT11=
EXTT12=
EXTT13=
EXTT14=
EXTT15=
EXTT16=
EXTT17=
EXTT18=
EXTT19=
EXTT20=
EXTT21=
PLAYORDER=
